# xmcd
#
# Track frame offsets:
#	150
#	7327
#	25232
#	25885
#	43567
#	62472
#	66785
#	85935
#	104482
#	115137
#	133175
#	152900
#	175615
#	180650
#	205252
#	228637
#	238310
#
# Disc length: 3416 seconds
#
# Revision: 0
# Processed by: cddbd v1.4b42PL0 Copyright (c) Steve Scherf et al.
# Submitted via: EZCDDA 4.3.3.2
#
DISCID=ea0d5611
DTITLE=Trellini
DYEAR=1900
DGENRE=
TTITLE0=Tell Me Baby (Intro)
TTITLE1=Stay Wit Me
TTITLE2=Spastic A-- (Interlude)
TTITLE3=Don't Call Me Baby
TTITLE4=U Said U Love Me
TTITLE5=Eddie Miller (Interlude)
TTITLE6=Crazy Bout U
TTITLE7=Come Inside
TTITLE8=Intermission Tipp
TTITLE9=I Wanna Be Yours
TTITLE10=Follow My Heart
TTITLE11=Together Forever
TTITLE12=Dinner Date (Skit)
TTITLE13=True 2 Me
TTITLE14=Take It Slow
TTITLE15=What Ups (Outro)
TTITLE16=I Wanna Be Yours (Quiet Storm Mix)
EXTD=
EXTT0=
EXTT1=
EXTT2=
EXTT3=
EXTT4=
EXTT5=
EXTT6=
EXTT7=
EXTT8=
EXTT9=
EXTT10=
EXTT11=
EXTT12=
EXTT13=
EXTT14=
EXTT15=
EXTT16=
PLAYORDER=
